<svg width="214" height="49" viewBox="0 0 214 49" fill="none" xmlns="http://www.w3.org/2000/svg">
<path d="M0 14.2137V21.7055L13.8476 30.2958C15.3244 31.212 17.2556 30.8564 18.3092 29.4742L34.7655 7.88643L24.4934 1.95507C22.3993 0.745853 19.8182 0.74972 17.7277 1.96521L1.67797 11.297C0.639148 11.901 0 13.012 0 14.2137Z" fill="url(#paint0_linear_1_393)"/>
<path d="M38.9344 10.3616L38.6455 10.206L21.1375 32.7895C19.0079 35.5364 15.1401 36.2162 12.2015 34.3601L0 26.6535V32.8454C0 35.2487 1.27829 37.4706 3.35594 38.6786L17.6919 47.014C19.8015 48.2406 22.409 48.2326 24.511 46.993L39.1614 38.3535C41.2188 37.1402 42.4815 34.9297 42.4815 32.5413V16.3018C42.4815 13.8201 41.1192 11.5387 38.9344 10.3616Z" fill="url(#paint1_linear_1_393)"/>
<path d="M70.7393 13.7273V37H66.4893L56.3643 22.3523H56.1938V37H51.2734V13.7273H55.5915L65.637 28.3636H65.8415V13.7273H70.7393ZM82.0946 37H73.8446V13.7273H82.1628C84.5037 13.7273 86.5188 14.1932 88.2082 15.125C89.8976 16.0492 91.1969 17.3788 92.106 19.1136C93.0226 20.8485 93.481 22.9242 93.481 25.3409C93.481 27.7652 93.0226 29.8485 92.106 31.5909C91.1969 33.3333 89.8901 34.6705 88.1855 35.6023C86.4885 36.5341 84.4582 37 82.0946 37ZM78.7651 32.7841H81.8901C83.3446 32.7841 84.5681 32.5265 85.5605 32.0114C86.5605 31.4886 87.3105 30.6818 87.8105 29.5909C88.3181 28.4924 88.5719 27.0758 88.5719 25.3409C88.5719 23.6212 88.3181 22.2159 87.8105 21.125C87.3105 20.0341 86.5643 19.2311 85.5719 18.7159C84.5795 18.2008 83.356 17.9432 81.9014 17.9432H78.7651V32.7841ZM98.8647 37H93.592L101.626 13.7273H107.967L115.99 37H110.717L104.887 19.0455H104.706L98.8647 37ZM98.5352 27.8523H110.99V31.6932H98.5352V27.8523Z" fill="#0057D6" style="fill:#0057D6;fill:color(display-p3 0.0000 0.3412 0.8392);fill-opacity:1;"/>
<path d="M114.101 17.7841V13.7273H133.214V17.7841H126.089V37H121.226V17.7841H114.101ZM133.499 37V19.5455H138.192V22.5909H138.374C138.692 21.5076 139.226 20.6894 139.976 20.1364C140.726 19.5758 141.59 19.2955 142.567 19.2955C142.809 19.2955 143.071 19.3106 143.351 19.3409C143.631 19.3712 143.877 19.4129 144.09 19.4659V23.7614C143.862 23.6932 143.548 23.6326 143.146 23.5795C142.745 23.5265 142.377 23.5 142.044 23.5C141.332 23.5 140.696 23.6553 140.135 23.9659C139.582 24.2689 139.143 24.6932 138.817 25.2386C138.499 25.7841 138.34 26.4129 138.34 27.125V37H133.499ZM150.11 37.3295C148.996 37.3295 148.004 37.1364 147.132 36.75C146.261 36.3561 145.572 35.7765 145.064 35.0114C144.564 34.2386 144.314 33.2765 144.314 32.125C144.314 31.1553 144.492 30.3409 144.848 29.6818C145.204 29.0227 145.689 28.4924 146.303 28.0909C146.917 27.6894 147.614 27.3864 148.394 27.1818C149.182 26.9773 150.007 26.8333 150.871 26.75C151.886 26.6439 152.704 26.5455 153.326 26.4545C153.947 26.3561 154.398 26.2121 154.678 26.0227C154.958 25.8333 155.098 25.553 155.098 25.1818V25.1136C155.098 24.3939 154.871 23.8371 154.417 23.4432C153.97 23.0492 153.333 22.8523 152.507 22.8523C151.636 22.8523 150.943 23.0455 150.428 23.4318C149.913 23.8106 149.572 24.2879 149.405 24.8636L144.928 24.5C145.155 23.4394 145.602 22.5227 146.269 21.75C146.935 20.9697 147.795 20.3712 148.848 19.9545C149.909 19.5303 151.136 19.3182 152.53 19.3182C153.5 19.3182 154.428 19.4318 155.314 19.6591C156.208 19.8864 157 20.2386 157.689 20.7159C158.386 21.1932 158.935 21.8068 159.337 22.5568C159.739 23.2992 159.939 24.1894 159.939 25.2273V37H155.348V34.5795H155.212C154.932 35.125 154.557 35.6061 154.087 36.0227C153.617 36.4318 153.053 36.7538 152.394 36.9886C151.735 37.2159 150.973 37.3295 150.11 37.3295ZM151.496 33.9886C152.208 33.9886 152.837 33.8485 153.382 33.5682C153.928 33.2803 154.356 32.8939 154.667 32.4091C154.977 31.9242 155.132 31.375 155.132 30.7614V28.9091C154.981 29.0076 154.773 29.0985 154.507 29.1818C154.25 29.2576 153.958 29.3295 153.632 29.3977C153.307 29.4583 152.981 29.5152 152.655 29.5682C152.329 29.6136 152.034 29.6553 151.769 29.6932C151.201 29.7765 150.704 29.9091 150.28 30.0909C149.856 30.2727 149.526 30.5189 149.292 30.8295C149.057 31.1326 148.939 31.5114 148.939 31.9659C148.939 32.625 149.178 33.1288 149.655 33.4773C150.14 33.8182 150.754 33.9886 151.496 33.9886ZM170.621 37.3409C168.833 37.3409 167.296 36.9621 166.008 36.2045C164.727 35.4394 163.743 34.3788 163.053 33.0227C162.371 31.6667 162.03 30.1061 162.03 28.3409C162.03 26.553 162.375 24.9848 163.064 23.6364C163.761 22.2803 164.75 21.2235 166.03 20.4659C167.311 19.7008 168.833 19.3182 170.599 19.3182C172.121 19.3182 173.455 19.5947 174.599 20.1477C175.743 20.7008 176.648 21.4773 177.314 22.4773C177.981 23.4773 178.349 24.6515 178.417 26H173.849C173.72 25.1288 173.379 24.428 172.826 23.8977C172.28 23.3598 171.564 23.0909 170.678 23.0909C169.928 23.0909 169.273 23.2955 168.712 23.7045C168.159 24.1061 167.727 24.6932 167.417 25.4659C167.106 26.2386 166.951 27.1742 166.951 28.2727C166.951 29.3864 167.102 30.3333 167.405 31.1136C167.716 31.8939 168.152 32.4886 168.712 32.8977C169.273 33.3068 169.928 33.5114 170.678 33.5114C171.231 33.5114 171.727 33.3977 172.167 33.1705C172.614 32.9432 172.981 32.6136 173.269 32.1818C173.564 31.7424 173.758 31.2159 173.849 30.6023H178.417C178.341 31.9356 177.977 33.1098 177.326 34.125C176.682 35.1326 175.792 35.9205 174.655 36.4886C173.519 37.0568 172.174 37.3409 170.621 37.3409ZM188.511 37.3409C186.715 37.3409 185.17 36.9773 183.874 36.25C182.586 35.5152 181.594 34.4773 180.897 33.1364C180.2 31.7879 179.852 30.1932 179.852 28.3523C179.852 26.5568 180.2 24.9811 180.897 23.625C181.594 22.2689 182.575 21.2121 183.84 20.4545C185.113 19.697 186.605 19.3182 188.318 19.3182C189.469 19.3182 190.541 19.5038 191.533 19.875C192.533 20.2386 193.405 20.7879 194.147 21.5227C194.897 22.2576 195.48 23.1818 195.897 24.2955C196.314 25.4015 196.522 26.697 196.522 28.1818V29.5114H181.783V26.5114H191.965C191.965 25.8144 191.814 25.197 191.511 24.6591C191.208 24.1212 190.787 23.7008 190.249 23.3977C189.719 23.0871 189.102 22.9318 188.397 22.9318C187.662 22.9318 187.011 23.1023 186.443 23.4432C185.882 23.7765 185.443 24.2273 185.124 24.7955C184.806 25.3561 184.643 25.9811 184.636 26.6705V29.5227C184.636 30.3864 184.795 31.1326 185.113 31.7614C185.439 32.3902 185.897 32.875 186.488 33.2159C187.079 33.5568 187.78 33.7273 188.59 33.7273C189.128 33.7273 189.621 33.6515 190.068 33.5C190.515 33.3485 190.897 33.1212 191.215 32.8182C191.533 32.5152 191.776 32.1439 191.943 31.7045L196.42 32C196.193 33.0758 195.727 34.0152 195.022 34.8182C194.325 35.6136 193.424 36.2348 192.318 36.6818C191.219 37.1212 189.95 37.3409 188.511 37.3409Z" fill="#0E3588" style="fill:#0E3588;fill:color(display-p3 0.0556 0.2079 0.5343);fill-opacity:1;"/>
<defs>
<linearGradient id="paint0_linear_1_393" x1="33.679" y1="16.1102" x2="-2.00743e-06" y2="16.1102" gradientUnits="userSpaceOnUse">
<stop stop-color="#0DBFE4" style="stop-color:#0DBFE4;stop-color:color(display-p3 0.0491 0.7484 0.8948);stop-opacity:1;"/>
<stop offset="1" stop-color="#22D1C2" style="stop-color:#22D1C2;stop-color:color(display-p3 0.1316 0.8200 0.7623);stop-opacity:1;"/>
</linearGradient>
<linearGradient id="paint1_linear_1_393" x1="42.4815" y1="29.2445" x2="0" y2="29.2445" gradientUnits="userSpaceOnUse">
<stop stop-color="#0D98F3" style="stop-color:#0D98F3;stop-color:color(display-p3 0.0501 0.5958 0.9513);stop-opacity:1;"/>
<stop offset="1" stop-color="#3236DB" style="stop-color:#3236DB;stop-color:color(display-p3 0.1952 0.2108 0.8594);stop-opacity:1;"/>
</linearGradient>
</defs>
</svg>
